<svg xmlns="http://www.w3.org/2000/svg" viewBox="0 0 548 666.66669"><path fill="#1a72e9" d="M181.30767 666.66669c-8.43333-.0704-19.23333-.62693-24-1.23685-4.76666-.60992-14.06666-2.42752-20.66666-4.03911s-17.65189-5.22708-24.55975-8.03441c-6.90786-2.80735-16.844132-7.55559-22.080598-10.55167s-13.546165-8.46195-18.466005-12.14637c-4.91983-3.68443-13.04589-10.6925-18.05791-15.57349-5.01201-4.881-12.85064-13.97453-17.41917-20.20786-4.56852-6.23334-11.51385-17.93334-15.43405-26-3.92021-8.06667-8.98761-20.36667-11.2609001-27.33334-2.27328-6.96666-5.31563-19.2216-6.76077-27.23319-1.49164-8.2694-2.62752001-20.45085-2.62752001-28.17817 0-7.4864 1.22312001-22.77897 2.71805001-33.98348 1.49493-11.20452 5.11399-32.12435 8.0423701-46.48851 2.92837-14.36416 6.27413-31.21665 7.43501-37.44999 1.82715-9.81085 2.00482-21.00558 1.3225-83.33333-.43351-39.6-1.40957-85.14439-2.16904-101.20975-.75947-16.06538-1.52366-43.06538-1.6982-60.00001-.22709-22.03249.18725-32.876094 1.45671-38.123587.97573-4.033333 3.56478-12.422605 5.75343-18.642827 2.18866-6.220222 5.89033-14.896994 8.22594-19.281715 2.33561-4.384722 7.32334-11.296549 11.08383-15.359614 3.96444-4.283412 11.18745-9.876373 17.19057-13.311095 5.69431-3.258035 16.20262-7.882971 23.351799-10.2776356 7.149183-2.3946644 18.705534-5.3267328 25.680784-6.5157075C117.26849.63784952 126.15814.16196154 138.17901.55911598c9.42077.31125003 23.27866 1.58562612 30.79533 2.83194682 12.86125 2.1324948 14.47208 2.1324948 27.33333 0 7.51667-1.2463207 21.37456-2.52069679 30.79534-2.83194682 12.02086-.39715444 20.91052.0787335 29.81092 1.59586292 6.97524 1.1889747 18.5316 4.1210431 25.68077 6.5157075 7.14919 2.3946646 17.65749 7.0196006 23.35181 10.2776356 6.00312 3.434722 13.22612 9.027683 17.19056 13.311095 3.7605 4.063065 8.74823 10.974892 11.08383 15.359614 2.33561 4.384721 6.03728 13.061493 8.22595 19.281715 2.18865 6.220222 4.77769 14.609494 5.75342 18.642827 1.26947 5.247493 1.6838 16.091097 1.45671 38.123587-.17455 16.93463-.93873 43.93463-1.6982 60.00001-.75947 16.06536-1.73553 61.60975-2.16904 101.20975-.68231 62.32775-.50465 73.52248 1.32251 83.33333 1.16088 6.23334 4.50664 23.08583 7.43501 37.44999 2.92837 14.36416 6.54744 35.28399 8.04236 46.48851 1.49493 11.20451 2.71805 26.49708 2.71805 33.98348 0 7.72732-1.13588 19.90877-2.62752 28.17817-1.44513 8.01159-4.48748 20.26653-6.76077 27.23319-2.27328 6.96667-7.34069 19.26667-11.26089 27.33334-3.9202 8.06666-10.86554 19.76666-15.43406 26-4.56853 6.23333-12.40716 15.32686-17.41917 20.20786-5.01201 4.88099-13.13808 11.88906-18.05791 15.57349-4.91984 3.68442-13.22953 9.15029-18.466 12.14637-5.23646 2.99608-15.17273 7.74432-22.0806 10.55167-6.90786 2.80733-17.95974 6.41142-24.55974 8.00909-6.6 1.59765-16.5 3.47281-22 4.16701-5.5.69419-16.9 1.20462-25.33334 1.13427zm.66667-59.97558c5.13333.0765 14.49951-.70778 20.81371-1.74306 6.3142-1.03528 14.4142-3.18311 18-4.77296 3.5858-1.58984 9.59006-4.36362 13.34282-6.16392 3.75276-1.8003 8.07768-4.44199 9.61092-5.87043 1.53324-1.42843 3.38366-2.59715 4.11202-2.59715.72837 0 7.05346-5.7478 14.05576-12.77289 7.00229-7.02509 12.73144-13.57509 12.73144-14.55556 0-.98047.47365-1.98265 1.05257-2.22711.57891-.24444 2.84267-3.44444 5.03056-7.1111 2.18789-3.66667 5.39024-9.66667 7.11633-13.33334 1.7261-3.66666 3.6018-7.86666 4.16822-9.33333.56642-1.46667 1.67905-4.46667 2.47249-6.66667.79345-2.2 2.3996-7.6 3.56921-12 1.16962-4.4 3.06528-11.9 4.21258-16.66667 1.46657-6.09317 2.11698-15.79328 2.19034-32.66666.0581-13.3687-.65454-29.02035-1.60885-35.33334-.94227-6.23333-2.66384-17.03333-3.82573-24-1.1619-6.96667-2.59588-15.66667-3.18664-19.33333-.59076-3.66667-1.76675-11.46667-2.61331-17.33334-1.09824-7.61082-1.29895-30.72064-.70055-80.66667.46126-38.5 1.46452-84.06556 2.22947-101.2568 1.05517-23.71353 1.00028-34.17127-.22748-43.33334-.89008-6.64209-3.35235-17.38601-5.47171-23.87537-2.11937-6.48936-5.37552-14.709848-7.23589-18.267743-1.86037-3.557895-5.88505-8.870946-8.94372-11.806782-3.05868-2.935835-7.83787-6.865352-10.62044-8.73226-2.78256-1.866908-5.61927-3.394379-6.3038-3.394379-.68452 0-4.40787-1.455517-8.27412-3.234484-3.86624-1.778967-11.22953-3.939131-16.36287-4.800365-5.13333-.861235-13.83333-1.252394-19.33333-.869242-5.5.383151-14.2 1.28605-19.33333 2.00644-6.1214.859052-12.54527.857232-18.66667-.0053-5.13333-.723299-13.83333-1.626197-19.33333-2.00644-5.5-.380243-14.2.01333-19.33334.874531-5.13333.861234-12.49662 3.021398-16.36287 4.800365-3.86625 1.779011-7.5896 3.234528-8.27412 3.234528s-3.52123 1.527471-6.30379 3.394379c-2.78257 1.866908-7.561772 5.796425-10.620445 8.73226-3.058675 2.935836-7.083348 8.248887-8.94372 11.806782-1.860372 3.557895-5.116518 11.77838-7.235888 18.26774s-4.58164 17.23328-5.47171 23.87537c-1.22776 9.16207-1.28266 19.61981-.22749 43.33334.76496 17.19124 1.76822 62.7568 2.22948 101.2568.59839 49.94603.39769 73.05585-.70055 80.66667-.84656 5.86667-2.02255 13.66667-2.61331 17.33334-.59076 3.66666-2.02475 12.36666-3.18664 19.33333-1.16189 6.96667-2.88347 17.76667-3.82574 24-.9543 6.31299-1.66698 21.96464-1.60885 35.33334.0734 16.87338.72377 26.57349 2.19035 32.66666 1.1473 4.76667 3.04296 12.26667 4.21257 16.66667 1.16962 4.4 2.77577 9.8 3.56921 12 .79345 2.2 1.90607 5.2 2.4725 6.66667.56642 1.46667 2.44212 5.66667 4.16821 9.33333 1.7261 3.66667 4.92845 9.66667 7.116342 13.33334 2.187892 3.66666 4.451643 6.86666 5.030557 7.1111.578914.24443 1.052571 1.24661 1.052571 2.22708s5.729149 7.53047 12.731443 14.55556c7.0023 7.02509 13.32738 12.77289 14.05575 12.77289s2.57878 1.16872 4.11202 2.59715c1.53325 1.42844 5.85816 4.07013 9.61092 5.87043 3.75276 1.8003 9.80038 4.59444 13.43914 6.20918 3.63876 1.61475 11.13876 3.69991 16.66666 4.6337 5.52791.93378 14.25074 1.76046 19.38407 1.83706zm182 59.96983c-8.43333-.0735-18.80887-.57842-23.05675-1.12201-4.24786-.5436-11.29786-1.74692-15.66666-2.67404-4.36879-.92712-7.91443-2.05369-7.87919-2.50348.0352-.4498 3.44281-2.91781 7.57237-5.48448 4.12958-2.56667 13.73663-10.62729 21.34902-17.91249 7.61238-7.28522 16.29108-16.97288 19.286-21.52815 5.4453-8.28232 5.4453-8.28232 18.32701-10.29183 7.08492-1.10524 15.84865-3.32588 19.47495-4.93476 3.62629-1.60888 9.66369-4.39823 13.41645-6.19853 3.75276-1.8003 8.07768-4.44199 9.61092-5.87043 1.53324-1.42843 3.38365-2.59715 4.11201-2.59715.72838 0 7.05347-5.7478 14.05576-12.77289 7.0023-7.02509 12.73144-13.57509 12.73144-14.55556 0-.98047.47366-1.98265 1.05258-2.22711.5789-.24444 2.84266-3.44444 5.03056-7.1111 2.18789-3.66667 5.39024-9.66667 7.11633-13.33334 1.72609-3.66666 3.6018-7.86666 4.16821-9.33333.56643-1.46667 1.67906-4.46667 2.4725-6.66667.79345-2.2 2.3996-7.6 3.56921-12s3.06528-11.9 4.21257-16.66667c1.46658-6.09317 2.11699-15.79328 2.19035-32.66666.0581-13.3687-.65455-29.02035-1.60885-35.33334-.94227-6.23333-2.66384-17.03333-3.82574-24-1.16189-6.96667-2.59588-15.66667-3.18664-19.33333-.59076-3.66667-1.76674-11.46667-2.6133-17.33334-1.09824-7.61082-1.29895-30.72064-.70055-80.66667.46125-38.5 1.46452-84.06556 2.22947-101.2568 1.05517-23.71353 1.00028-34.17127-.22748-43.33334-.89008-6.64209-3.35235-17.38601-5.47171-23.87537-2.11937-6.48936-5.37552-14.709848-7.23589-18.267743-1.86038-3.557895-5.88506-8.870946-8.94372-11.806782-3.05868-2.935835-7.83787-6.865352-10.62044-8.73226-2.78256-1.866908-5.61927-3.394379-6.3038-3.394379-.68452 0-4.40787-1.441425-8.27412-3.203167-3.86624-1.761742-10.66566-3.861742-15.1098-4.666666-4.44414-.804926-13.49063-1.463501-20.1033-1.463501-12.02304 0-12.02304 0-18.2042-12.333333-3.39962-6.783334-9.21342-15.933334-12.91956-20.333334-3.70612-4.4-10.07537-11.750698-14.15388-16.334884-5.75358-6.4669303-6.95273-8.5124616-5.35064-9.1272426 1.13568-.4357972 6.19267-.096112 11.23778.7548547 7.66832 1.2934293 11.44752 1.1706229 23.04016-.7486972 7.62698-1.262751 21.57513-2.55056989 30.9959-2.86181992 12.02087-.39715444 20.91052.0787335 29.81092 1.59586292 6.97524 1.1889747 18.5316 4.1210431 25.68078 6.5157075 7.14918 2.3946646 17.65749 7.0196006 23.35181 10.2776356 6.00312 3.434722 13.22612 9.027683 17.19056 13.311095 3.76049 4.063065 8.74823 10.974892 11.08383 15.359614 2.33561 4.384721 6.03728 13.061493 8.22594 19.281715 2.18866 6.220222 4.7777 14.609494 5.75343 18.642827 1.26947 5.247493 1.6838 16.091097 1.45671 38.123587-.17455 16.93463-.93874 43.93463-1.6982 60.00001-.75947 16.06536-1.73554 61.60975-2.16904 101.20975-.68231 62.32775-.50466 73.52248 1.3225 83.33333 1.16088 6.23334 4.50664 23.08583 7.43502 37.44999 2.92837 14.36416 6.54744 35.28399 8.04236 46.48851 1.49493 11.20451 2.71805 26.49708 2.71805 33.98348 0 7.72732-1.13588 19.90877-2.62752 28.17817-1.44513 8.01159-4.48748 20.26653-6.76077 27.23319-2.27328 6.96667-7.3407 19.26667-11.2609 27.33334-3.9202 8.06666-10.86553 19.76666-15.43405 26-4.56853 6.23333-12.40716 15.32686-17.41917 20.20786-5.01202 4.88099-13.13808 11.88906-18.05791 15.57349-4.91984 3.68442-13.22953 9.15029-18.466 12.14637-5.23647 2.99608-15.17273 7.74432-22.0806 10.55167-6.90787 2.80733-17.95975 6.41142-24.55975 8.00909-6.6 1.59765-16.5 3.47281-22 4.16701-5.5.69419-16.9 1.20203-25.33333 1.12852z"/></svg>